<?xml version="1.0" encoding="utf-8"?>
<svg xmlns="http://www.w3.org/2000/svg" viewBox="3 3 25.949 26" width="256px" height="256.503140776138px" xmlns:bx="https://boxy-svg.com"><defs><linearGradient id="gradient-0-0" href="#gradient-0" gradientUnits="userSpaceOnUse" x1="15.974" y1="3" x2="15.974" y2="29" gradientTransform="matrix(0.000487, -1, 0.999671, 0.000487, -0.024389, 31.956787)"/><linearGradient id="gradient-0"><stop offset="0" style="stop-color: rgb(24, 24, 27);"/><stop offset="1" style="stop-color: rgb(110, 231, 183);"/></linearGradient></defs><path d="M 17 17 L 28.949 17 C 28.897 17.683 28.791 18.35 28.637 19 L 17 19 C 16.447 19 16 19.447 16 20 C 16 20.553 16.447 21 17 21 L 27.997 21 C 27.704 21.701 27.343 22.367 26.937 23 L 17 23 C 16.447 23 16 23.447 16 24 C 16 24.553 16.447 25 17 25 L 25.359 25 C 22.992 27.46 19.675 29 16 29 C 8.832 29 3 23.168 3 16 C 3 8.832 8.832 3 16 3 C 19.675 3 22.992 4.54 25.359 7 L 17 7 C 16.447 7 16 7.447 16 8 C 16 8.553 16.447 9 17 9 L 26.937 9 C 27.343 9.633 27.704 10.299 27.997 11 L 17 11 C 16.447 11 16 11.447 16 12 C 16 12.553 16.447 13 17 13 L 28.637 13 C 28.791 13.65 28.897 14.317 28.949 15 L 17 15 C 16.447 15 16 15.447 16 16 C 16 16.553 16.447 17 17 17 Z" style="fill-rule: nonzero; paint-order: fill; fill: url(&quot;#gradient-0-0&quot;);" id="object-0"/></svg>